<?xml version="1.0" encoding="UTF-8" standalone="no"?>
<!-- Created with Inkscape (http://www.inkscape.org/) -->

<svg
   xmlns:dc="http://purl.org/dc/elements/1.1/"
   xmlns:cc="http://creativecommons.org/ns#"
   xmlns:rdf="http://www.w3.org/1999/02/22-rdf-syntax-ns#"
   xmlns:svg="http://www.w3.org/2000/svg"
   xmlns="http://www.w3.org/2000/svg"
   xmlns:sodipodi="http://sodipodi.sourceforge.net/DTD/sodipodi-0.dtd"
   xmlns:inkscape="http://www.inkscape.org/namespaces/inkscape"
   width="512"
   height="512"
   viewBox="0 0 135.46666 135.46667"
   version="1.1"
   id="svg832"
   inkscape:version="0.92.2 2405546, 2018-03-11"
   sodipodi:docname="favicon.svg"
   inkscape:export-filename="/home/sujaykumar/Development/Projects/Web/jekyll-theme-carbon/images/favicon.png"
   inkscape:export-xdpi="96"
   inkscape:export-ydpi="96">
  <title
     id="title1379">Favicon</title>
  <defs
     id="defs826" />
  <sodipodi:namedview
     id="base"
     pagecolor="#ffffff"
     bordercolor="#666666"
     borderopacity="1.0"
     inkscape:pageopacity="0.0"
     inkscape:pageshadow="2"
     inkscape:zoom="0.98994949"
     inkscape:cx="-18.283547"
     inkscape:cy="257.97918"
     inkscape:document-units="px"
     inkscape:current-layer="layer1"
     showgrid="false"
     units="px"
     inkscape:window-width="1920"
     inkscape:window-height="1010"
     inkscape:window-x="1600"
     inkscape:window-y="28"
     inkscape:window-maximized="1" />
  <metadata
     id="metadata829">
    <rdf:RDF>
      <cc:Work
         rdf:about="">
        <dc:format>image/svg+xml</dc:format>
        <dc:type
           rdf:resource="http://purl.org/dc/dcmitype/StillImage" />
        <dc:title>Favicon</dc:title>
        <dc:date>Oct 6, 2018</dc:date>
        <dc:creator>
          <cc:Agent>
            <dc:title>Sujaykumar</dc:title>
          </cc:Agent>
        </dc:creator>
        <dc:rights>
          <cc:Agent>
            <dc:title>Creative Commons Attribution-NonCommercial-ShareAlike 4.0 International License.</dc:title>
          </cc:Agent>
        </dc:rights>
        <dc:publisher>
          <cc:Agent>
            <dc:title>Sujaykumar</dc:title>
          </cc:Agent>
        </dc:publisher>
        <dc:description>Favicon Image</dc:description>
        <dc:contributor>
          <cc:Agent>
            <dc:title>https://github.com/Sujaykumarh</dc:title>
          </cc:Agent>
        </dc:contributor>
        <cc:license
           rdf:resource="http://creativecommons.org/licenses/by-nc-sa/4.0/" />
      </cc:Work>
      <cc:License
         rdf:about="http://creativecommons.org/licenses/by-nc-sa/4.0/">
        <cc:permits
           rdf:resource="http://creativecommons.org/ns#Reproduction" />
        <cc:permits
           rdf:resource="http://creativecommons.org/ns#Distribution" />
        <cc:requires
           rdf:resource="http://creativecommons.org/ns#Notice" />
        <cc:requires
           rdf:resource="http://creativecommons.org/ns#Attribution" />
        <cc:prohibits
           rdf:resource="http://creativecommons.org/ns#CommercialUse" />
        <cc:permits
           rdf:resource="http://creativecommons.org/ns#DerivativeWorks" />
        <cc:requires
           rdf:resource="http://creativecommons.org/ns#ShareAlike" />
      </cc:License>
    </rdf:RDF>
  </metadata>
  <g
     inkscape:label="Layer 1"
     inkscape:groupmode="layer"
     id="layer1"
     transform="translate(0,-161.53331)">
    <g
       aria-label="C"
       transform="matrix(0.79912238,0,0,-0.79912238,-46.513398,377.18186)"
       style="font-style:normal;font-variant:normal;font-weight:normal;font-stretch:normal;font-size:40px;line-height:1.25;font-family:'Luckiest Guy';-inkscape-font-specification:'Luckiest Guy';letter-spacing:0px;word-spacing:0px;fill:#696969;fill-opacity:1;stroke:none"
       id="flowRoot1400">
      <path
         d="m 176.2245,221.39896 3.77708,-2.72788 c 4.75631,-2.79784 8.11371,-4.19675 10.0722,-4.19675 4.33664,0 9.02301,3.91696 14.05911,11.7509 3.07762,4.89621 4.61643,8.81317 4.61643,11.7509 0,2.93772 -0.97924,5.38583 -2.93773,7.34431 -1.81859,1.95849 -3.98691,3.70713 -6.50496,5.24594 -2.51805,1.53881 -4.96616,3.00767 -7.34432,4.40659 -2.23826,1.39892 -6.92463,3.21751 -14.05911,5.45578 -7.13448,2.23826 -14.05912,3.3574 -20.77392,3.3574 -6.57491,0 -13.28971,-0.83935 -20.1444,-2.51805 -6.7148,-1.8186 -13.70939,-4.75632 -20.98375,-8.81318 -7.13448,-4.19675 -13.5695,-9.23285 -19.305057,-15.1083 -5.735559,-6.01535 -10.491877,-13.63944 -14.268952,-22.87229 -3.637184,-9.37275 -5.455776,-19.5149 -5.455776,-30.42645 0,-10.91155 1.818592,-20.77391 5.455776,-29.58709 3.637184,-8.95307 8.253609,-16.29738 13.849277,-22.03294 5.735562,-5.87545 12.240522,-10.77166 19.514892,-14.68863 13.70938,-7.55415 27.48872,-11.33123 41.33799,-11.33123 6.57491,0 13.21977,1.04919 19.93457,3.14757 6.85469,1.95848 12.03069,3.98691 15.52798,6.08529 l 5.0361,2.93772 c 2.51805,1.53881 4.47653,2.79783 5.87545,3.77708 3.63718,2.93772 5.45578,6.29512 5.45578,10.0722 0,3.63718 -1.46887,7.4842 -4.40659,11.54106 -5.45578,7.55415 -10.35199,11.33123 -14.68863,11.33123 -2.51805,0 -6.08529,-1.53881 -10.70171,-4.61643 -5.87546,-4.75631 -13.70939,-7.13447 -23.50181,-7.13447 -9.09296,0 -18.04603,3.14756 -26.8592,9.44269 -4.19675,3.07761 -7.69405,7.41426 -10.49188,13.00992 -2.79783,5.59567 -4.19675,11.96074 -4.19675,19.09522 0,6.99458 1.39892,13.28971 4.19675,18.88538 2.79783,5.59567 6.36507,10.00225 10.70171,13.21976 8.5334,6.15524 17.41652,9.23285 26.64937,9.23285 4.33664,0 8.3935,-0.55956 12.17058,-1.6787 3.91697,-1.11913 6.7148,-2.23826 8.3935,-3.3574 z"
         style="font-style:normal;font-variant:normal;font-weight:normal;font-stretch:normal;font-size:192px;font-family:'Fredoka One';-inkscape-font-specification:'Fredoka One';fill:#696969;fill-opacity:1"
         id="path1408"
         inkscape:connector-curvature="0"
         sodipodi:nodetypes="ccscscscssccccscccsccccscscscssscscc" />
    </g>
  </g>
</svg>
